#!OML:ASF H:\Terrain\Patient Classification 1\Terrain2\Thursday\justin.ASF
:FULLY-SPECIFIED
:DEGREES
3894
root 20.8156 17.3863 -2.55756 180.214 -9.65505 178.798
lowerback 8.95821 0.165724 -2.61958
upperback 4.68705 -0.375959 2.32446
thorax -0.133281 -0.43687 3.91552
lowerneck -12.9789 2.49868 -8.82993
upperneck 38.6546 1.05807 2.54866
head 15.7431 -1.8911 2.45942
rclavicle 3.57812e-015 -2.46493e-014
rhumerus -32.0883 -11.8035 -77.6884
rradius 33.4058
rwrist -9.95616
rhand -20.9035 15.0943
rfingers 7.12502
rthumb 5.46755 -14.8152
lclavicle 3.57812e-015 -2.46493e-014
lhumerus -33.1714 -0.553118 87.7449
lradius 38.6948
lwrist 5.94816
lhand -19.9737 21.1329
lfingers 7.12502
lthumb 6.36524 51.0172
rfemur -32.1098 -4.94129 14.5034
rtibia 31.2014
rfoot -14.3795 -2.52805
rtoes -2.31071
lfemur 7.21035 -0.668173 -22.7528
ltibia 17.4775
lfoot -19.141 -12.1301
ltoes 4.69423
3895
root 20.8222 17.3732 -2.64491 180.278 -9.9046 178.564
lowerback 8.89113 0.197415 -2.81477
upperback 4.71255 -0.344807 2.25148
thorax -0.0717494 -0.42382 3.94643
lowerneck -12.9286 2.46152 -8.82297
upperneck 38.6259 1.02623 2.49508
head 15.7208 -1.90485 2.43027
rclavicle -7.7526e-015 7.95139e-015
rhumerus -32.2283 -12.0942 -77.5391
rradius 33.232
rwrist -9.68671
rhand -20.9255 15.0909
rfingers 7.12502
rthumb 5.44626 -14.8191
lclavicle -7.7526e-015 7.95139e-015
lhumerus -33.014 -0.421626 87.5614
lradius 38.7945
lwrist 5.72167
lhand -19.8501 20.8836
lfingers 7.12502
lthumb 6.48454 50.7643
rfemur -31.9165 -4.3289 13.8438
rtibia 29.6653
rfoot -14.0358 -2.9708
rtoes -3.04449
lfemur 7.67652 -0.885379 -22.9299
ltibia 17.0375
lfoot -19.1159 -12.3067
ltoes 2.12273
3896
root 20.8325 17.3544 -2.7309 180.371 -10.1064 178.365
lowerback 8.83662 0.249653 -2.96179
upperback 4.72869 -0.281786 2.15989
thorax -0.0303427 -0.392943 3.92811
lowerneck -12.9165 2.39212 -8.8196
upperneck 38.5709 0.931682 2.52758
head 15.6974 -1.92791 2.43027
rclavicle -1.68967e-014 -1.35174e-014
rhumerus -32.2585 -12.159 -77.5664
rradius 33.0149
rwrist -10.1033
rhand -21.2308 14.8775
rfingers 7.12502
rthumb 5.15147 -15.0399
lclavicle -1.68967e-014 -1.35174e-014
lhumerus -32.8937 -0.440075 87.3793
lradius 38.8921
lwrist 5.8524
lhand -19.7197 20.6037
lfingers 7.12502
lthumb 6.61044 50.4805
rfemur -31.8404 -3.57938 13.2299
rtibia 28.2946
rfoot -13.7283 -3.59436
rtoes -5.64212
lfemur 8.03 -1.18402 -23.0335
ltibia 16.7003
lfoot -18.9906 -12.7607
ltoes 1.4807
3897
root 20.8409 17.3415 -2.82167 180.298 -10.41 178.692
lowerback 8.90241 0.280609 -2.49455
upperback 4.70033 -0.205136 2.16382
thorax -0.105634 -0.344252 3.66136
lowerneck -12.8954 2.31506 -8.7502
upperneck 38.6303 0.770028 2.56431
head 15.7355 -1.9827 2.4087
rclavicle -1.39149e-015 -2.70347e-014
rhumerus -32.3882 -12.6185 -77.4525
rradius 32.7281
rwrist -10.12
rhand -21.4403 15.0379
rfingers 7.12502
rthumb 4.94922 -14.8843
lclavicle -1.39149e-015 -2.70347e-014
lhumerus -32.8769 -0.725216 87.2398
lradius 38.9944
lwrist 6.40289
lhand -19.5956 20.9337
lfingers 7.12502
lthumb 6.73019 50.8068
rfemur -31.5805 -2.9681 13.2058
rtibia 27.1278
rfoot -13.5699 -3.86837
rtoes -6.53734
lfemur 8.48634 -1.56218 -22.5575
ltibia 16.4167
lfoot -18.7901 -13.3031
ltoes 4.56422
3898
root 20.8431 17.3347 -2.91631 180.242 -10.7694 178.989
lowerback 8.89768 0.255964 -1.98868
upperback 4.65645 -0.194929 2.16711
thorax -0.151932 -0.327631 3.3775
lowerneck -12.9593 2.26615 -8.75445
upperneck 38.8091 0.660969 2.59086
head 15.8511 -2.04055 2.40416
rclavicle 8.54774e-015 -1.11319e-014
rhumerus -32.5909 -13.0105 -77.3047
rradius 32.4555
rwrist -9.999
rhand -21.7319 15.6775
rfingers 7.12502
rthumb 4.66766 -14.2511
lclavicle 8.54774e-015 -1.11319e-014
lhumerus -32.8261 -0.565123 87.0008
lradius 38.9413
lwrist 6.5205
lhand -19.3676 21.5651
lfingers 7.12502
lthumb 6.95026 51.431
rfemur -31.347 -3.0375 13.352
rtibia 26.2119
rfoot -13.6679 -3.30968
rtoes -6.3724
lfemur 9.00528 -1.71607 -22.1509
ltibia 16.074
lfoot -18.8821 -13.3075
ltoes 1.89369
3899
root 20.846 17.3282 -3.00837 180.38 -10.9791 178.732
lowerback 8.77331 0.247489 -2.14197
upperback 4.63353 -0.207061 2.08421
thorax -0.106243 -0.331452 3.37811
lowerneck -13.0143 2.26337 -8.78204
upperneck 38.8919 0.673263 2.56493
head 15.9069 -2.04846 2.4007
rclavicle -1.88845e-014 3.18055e-015
rhumerus -32.6584 -13.0924 -77.2116
rradius 32.1608
rwrist -9.74837
rhand -21.7595 15.7525
rfingers 7.12502
rthumb 4.64096 -14.1767
lclavicle -1.88845e-014 3.18055e-015
lhumerus -32.7557 0.00531133 86.6752
lradius 38.8418
lwrist 6.17004
lhand -18.9564 23.0198
lfingers 7.12502
lthumb 7.34722 52.8722
rfemur -31.3377 -3.06935 12.9507
rtibia 25.5357
rfoot -14.2109 -2.2513
rtoes -5.12136
lfemur 9.38157 -1.75299 -22.3452
ltibia 15.7594
lfoot -18.8465 -13.3117
ltoes -0.604037
